<?xml version="1.0" encoding="UTF-8" standalone="no"?>
<!DOCTYPE svg PUBLIC "-//W3C//DTD SVG 1.1//EN" "http://www.w3.org/Graphics/SVG/1.1/DTD/svg11.dtd">
<svg width="100%" height="100%" viewBox="0 0 225 225" version="1.1" xmlns="http://www.w3.org/2000/svg" xmlns:xlink="http://www.w3.org/1999/xlink" xml:space="preserve" xmlns:serif="http://www.serif.com/" style="fill-rule:evenodd;clip-rule:evenodd;stroke-linejoin:round;stroke-miterlimit:2;">
    <g id="Background">
        <path d="M0,0L224.999,0C226.047,2.726 224.999,2.844 224.999,36.5L224.999,224.999C222.274,226.047 222.155,224.999 188.5,224.999L0,224.999C-0.704,223.17 -0,223.084 0,200.5L0,0Z" style="fill:rgb(185,29,22);"/>
        <path d="M47.812,69.619C48,69.688 48.082,69.164 48.269,69.232C48.462,69.303 48.106,69.652 50.385,70.686C54.021,72.336 107.431,102.215 108.487,103.51C108.884,103.997 110.48,128.251 111.264,167.515C111.383,173.467 113.672,178.594 109.829,175.087C103.387,169.209 57.108,131.423 55.734,129.36C54.99,128.243 47.843,71.583 47.812,69.619Z" style="fill:white;"/>
        <path d="M177.211,69.603C177.113,73.092 171.481,114.507 171.36,115.482C169.91,127.152 170.997,128.242 166.305,132.259C162.136,135.83 113.993,177.052 113.409,175.962C113.382,175.911 114.455,134.577 115.386,120.494C116.354,105.84 114.213,104.433 118.728,101.893C138.987,90.493 140.977,88.689 140.901,91.449C140.085,121.085 139.221,121.011 139.246,123.585C139.248,123.874 139.469,125.236 142.794,122.956C153.848,115.377 154.636,115.866 154.873,113.546C157.837,84.515 153.782,81.667 162.75,76.934C175.831,70.031 175.6,69.621 176.802,69.169C176.988,69.099 177.025,69.673 177.211,69.603Z" style="fill:white;"/>
        <path d="M47.084,120.54C48.348,130.592 46.692,131.753 53.1,136.976C57.754,140.77 109.908,183.28 110.328,185.544C110.354,185.681 109.762,197.775 107.498,197.51C106.208,197.36 75.301,170.82 72.542,168.451C44.005,143.946 37.498,142.531 36.111,132.573C35.332,126.979 26.939,66.734 26.961,62.564C26.97,60.722 39.508,64.363 40.163,67.559C40.883,71.069 41.064,76.32 47.084,120.54Z" style="fill:white;"/>
        <path d="M179.892,105.534C184.471,70.58 184.222,70.56 184.836,67.559C185.506,64.287 197.066,61.641 197.351,61.807C198.642,62.56 197.862,62.939 197.375,66.484C187.926,135.229 190.566,136.924 184.129,142.064C119.473,193.692 117.023,202.264 115.979,195.419C114.583,186.26 114.569,186.336 114.714,185.553C115.158,183.151 168.374,139.932 173.129,136.07C177.636,132.41 176.698,131.518 179.892,105.534Z" style="fill:white;"/>
        <path d="M112.498,38.166C104.927,39.787 43.967,63.549 41.39,62.798C40.698,62.597 33.858,57.351 33.184,56.871C33.02,56.754 30.727,55.121 32.458,54.449C48.52,48.21 102.276,29.277 108.363,27.133C114.917,24.824 123.274,29.82 165.435,44.69C192.329,54.175 194.31,54.08 193.058,56.117C192.418,57.158 185.131,61.91 184.416,62.377C182.031,63.932 181.867,62.651 155.561,53.333C122.305,41.553 122.535,41.001 112.498,38.166Z" style="fill:white;"/>
        <path d="M49.096,67.23C76.843,56.846 77.111,57.851 77.354,57.951C78.796,58.545 133.386,83.388 135.623,84.279C137.273,84.936 138.541,85.002 137.219,86.225C135.652,87.675 117.123,95.404 115.35,96.144C111.188,97.88 111.011,96.591 90.561,87.371C59.913,73.552 52.28,69.091 49.096,67.23Z" style="fill:white;"/>
        <path d="M175.93,67.203C174.458,68.147 163.64,75.088 156.406,77.013C154.361,77.557 101.13,54.477 96.309,52.868C96.1,52.798 92.133,51.474 94.628,50.686C111.165,45.46 110.994,44.788 112.5,44.788C114.785,44.788 170.876,65.35 175.93,67.203Z" style="fill:white;"/>
    </g>
</svg>
